<svg width="200" height="50" viewBox="0 0 200 50" fill="none" xmlns="http://www.w3.org/2000/svg">
<rect width="200" height="50" fill="#A8D0E6"/>
<path d="M25.0092 12H19.5895L25.3211 21.9427L28.0115 17.2638L25.0092 12Z" fill="white" stroke="black" stroke-width="0.4"/>
<path d="M23.9174 33.484L26.5298 28.7271L17.172 12.5849L14.4426 17.3418L23.9174 33.484Z" fill="white" stroke="black" stroke-width="0.4"/>
<path d="M16.0413 33.9518H21.539L15.7683 24.0872L13 28.805L16.0413 33.9518Z" fill="white" stroke="black" stroke-width="0.4"/>
<path d="M26.9977 13.5596H21.578L27.3097 23.5023L30 18.8234L26.9977 13.5596Z" fill="black" stroke="#94F956" stroke-width="0.4"/>
<path d="M25.9059 35.0436L28.5183 30.2867L19.1605 14.1445L16.4312 18.9014L25.9059 35.0436Z" fill="black" stroke="#94F956" stroke-width="0.4"/>
<path d="M18.0298 35.5115H23.5275L17.7569 25.6468L14.9885 30.3647L18.0298 35.5115Z" fill="black" stroke="#94F956" stroke-width="0.4"/>
<path d="M41.015 16.445H43.64L41.015 19.07H38.39H35.765L38.39 16.445H41.015ZM45.1396 20.375H47.7646L50.3896 23H47.7646L45.1396 20.375ZM53.0146 17.75H50.3896L47.7646 15.125H50.3896L53.0146 17.75ZM47.7646 17.75H50.3896L53.0146 20.375L50.3896 23V20.375H47.7646L45.1396 17.75L47.7646 15.125V17.75ZM57.1543 17.75H59.7793L62.4043 20.375V23H59.7793V20.375L57.1543 17.75ZM59.7793 15.125H62.4043L59.7793 17.75V15.125ZM57.1543 12.5V15.125V17.75V20.375V23H54.5293V20.375V17.75V15.125V12.5H57.1543ZM63.9043 17.75V15.125H66.5293V17.75V20.375V23H63.9043V20.375V17.75ZM63.9043 12.5H66.5293L63.9043 15.125V12.5ZM70.6602 23L73.2852 20.375V23H70.6602ZM70.6602 17.75V20.375V23H68.0352V20.375V17.75V15.125L70.6602 12.5V15.125V17.75ZM77.4131 23L80.0381 20.375V23H77.4131ZM77.4131 17.75V20.375V23H74.7881V20.375V17.75V15.125L77.4131 12.5V15.125V17.75ZM35.75 32.375H38.375L41 35H38.375L35.75 32.375ZM43.625 29.75H41L38.375 27.125H41L43.625 29.75ZM38.375 29.75H41L43.625 32.375L41 35V32.375H38.375L35.75 29.75L38.375 27.125V29.75ZM47.7646 35L50.3896 32.375H53.0146L50.3896 35H47.7646ZM47.7646 29.75V32.375V35L45.1396 32.375V29.75L47.7646 27.125V29.75ZM53.0146 29.75H50.3896L47.7646 27.125H50.3896L53.0146 29.75ZM59.7646 27.125L62.3896 29.75V32.375V35H59.7646V32.375V29.75H57.1396L59.7646 27.125ZM57.1396 24.5V27.125V29.75V32.375V35H54.5146V32.375V29.75V27.125V24.5H57.1396ZM66.5146 29.75V32.375V35H63.8896V32.375V29.75L66.5146 27.125H69.1396L66.5146 29.75ZM69.1396 27.125H71.7646V29.75V32.375L69.1396 35H66.5146L69.1396 32.375V29.75V27.125ZM75.9043 29.75V32.375V35H73.2793V32.375V29.75L75.9043 27.125H78.5293L75.9043 29.75ZM78.5293 27.125H81.1543V29.75V32.375L78.5293 35H75.9043L78.5293 32.375V29.75V27.125ZM85.2939 35L87.9189 32.375V35H85.2939ZM85.2939 29.75V32.375V35H82.6689V32.375V29.75V27.125L85.2939 24.5V27.125V29.75Z" fill="white"/>
<path d="M109 15.125H111.625V17.75V20.375V23H109V20.375V17.75L106.375 15.125H109ZM103.75 17.75V15.125H106.375V17.75V20.375V23H103.75V20.375V17.75ZM115.75 17.75V20.375V23H113.125V20.375V17.75L115.75 15.125H118.375L115.75 17.75ZM118.375 15.125H121V17.75V20.375L118.375 23H115.75L118.375 20.375V17.75V15.125ZM125.14 17.75H127.765L130.39 20.375V23H127.765V20.375L125.14 17.75ZM127.765 15.125H130.39L127.765 17.75V15.125ZM122.515 15.125H125.14V17.75V20.375V23H122.515V20.375V17.75V15.125ZM131.89 23H134.515L137.14 25.625H134.515L131.89 23ZM137.14 15.125H139.765V17.75V20.375V23L137.14 25.625V23L134.515 20.375H137.14V17.75V15.125ZM134.515 15.125V17.75V20.375L131.89 17.75V15.125H134.515ZM146.515 15.125H149.14V17.75V20.375V23H146.515V20.375V17.75L143.89 15.125H146.515ZM141.265 17.75V15.125H143.89V17.75V20.375V23H141.265V20.375V17.75ZM155.89 15.125H158.515V17.75V20.375V23H155.89V20.375V17.75V15.125ZM153.265 17.75V20.375H155.89L153.265 23L150.64 20.375V17.75L153.265 15.125H155.89L153.265 17.75ZM162.64 12.5H165.265L162.64 15.125V12.5ZM162.64 17.75V20.375H165.265L162.64 23L160.015 20.375V17.75V15.125H162.64V17.75ZM165.265 15.125H167.89V17.75V20.375V23H165.265V20.375V17.75V15.125ZM111.625 35H109H106.375L109 32.375H111.625V35ZM109 29.75L106.375 32.375V35H103.75V32.375L106.375 29.75L109 27.125V24.5H111.625V27.125L109 29.75ZM103.75 24.5H106.375H109L106.375 27.125H103.75V24.5ZM118.375 27.125H121V29.75V32.375V35H118.375V32.375V29.75V27.125ZM115.75 29.75V32.375H118.375L115.75 35L113.125 32.375V29.75L115.75 27.125H118.375L115.75 29.75ZM131.5 27.125H134.125V29.75V32.375V35H131.5V32.375L128.875 29.75H131.5V27.125ZM126.25 27.125H128.875V29.75V32.375V35H126.25V32.375V29.75V27.125ZM140.875 27.125H143.5V29.75V32.375V35H140.875V32.375V29.75V27.125ZM138.25 29.75V32.375H140.875L138.25 35L135.625 32.375V29.75L138.25 27.125H140.875L138.25 29.75ZM152.89 29.75V32.375L155.515 35H152.89H150.265V32.375V29.75V27.125L152.89 29.75ZM155.515 27.125H158.14V29.75V32.375V35H155.515V32.375V29.75V27.125ZM147.64 29.75V32.375L150.265 35H147.64H145.015V32.375V29.75V27.125H147.64V29.75ZM162.259 29.75V32.375H164.884L162.259 35L159.634 32.375V29.75V27.125H162.259V29.75ZM164.884 27.125H167.509V29.75V32.375V35H164.884V32.375V29.75V27.125ZM174.259 32.375V29.75L176.884 32.375V35H174.259V32.375ZM174.259 27.125H176.884L174.259 29.75V27.125ZM169.009 27.125H171.634L174.259 29.75L171.634 32.375V35H169.009V32.375L171.634 29.75L169.009 27.125Z" fill="white"/>
</svg>
